<mxfile host="app.diagrams.net" agent="Mozilla/5.0 (Windows NT 10.0; Win64; x64) AppleWebKit/537.36 (KHTML, like Gecko) Chrome/131.0.0.0 Safari/537.36" version="25.0.3">
  <diagram name="Pagina-1" id="RFZiibmnyebzwWx95ZG2">
    <mxGraphModel dx="1050" dy="522" grid="1" gridSize="10" guides="1" tooltips="1" connect="1" arrows="1" fold="1" page="1" pageScale="1" pageWidth="827" pageHeight="1169" math="0" shadow="0">
      <root>
        <mxCell id="0" />
        <mxCell id="1" parent="0" />
        <mxCell id="owARZ6gaNnKl0g-R_2Ok-1" value="Agente" style="shape=umlActor;verticalLabelPosition=bottom;verticalAlign=top;html=1;outlineConnect=0;" vertex="1" parent="1">
          <mxGeometry x="190" y="220" width="50" height="90" as="geometry" />
        </mxCell>
        <mxCell id="owARZ6gaNnKl0g-R_2Ok-2" value="Caricare nuovo annuncio di immobile" style="ellipse;whiteSpace=wrap;html=1;" vertex="1" parent="1">
          <mxGeometry x="344" y="80" width="140" height="70" as="geometry" />
        </mxCell>
        <mxCell id="owARZ6gaNnKl0g-R_2Ok-5" value="Modifica l&#39;annuncio di immobile creato" style="ellipse;whiteSpace=wrap;html=1;" vertex="1" parent="1">
          <mxGeometry x="344" y="200" width="140" height="70" as="geometry" />
        </mxCell>
        <mxCell id="owARZ6gaNnKl0g-R_2Ok-6" value="Cancellare l&#39;annuncio di immobile creato" style="ellipse;whiteSpace=wrap;html=1;" vertex="1" parent="1">
          <mxGeometry x="350" y="320" width="140" height="70" as="geometry" />
        </mxCell>
        <mxCell id="owARZ6gaNnKl0g-R_2Ok-7" value="Accettare o rifiutare un offerta per l&#39;annuncio di immobile creato" style="ellipse;whiteSpace=wrap;html=1;" vertex="1" parent="1">
          <mxGeometry x="350" y="440" width="140" height="70" as="geometry" />
        </mxCell>
      </root>
    </mxGraphModel>
  </diagram>
</mxfile>
